<?xml version="1.0" encoding="UTF-8"?>
<svg version="1.1" xmlns="http://www.w3.org/2000/svg" width="512" height="512">
<path d="M0 0 C6.43468978 5.52011458 11.87926443 11.52005683 16.9375 18.3125 C18.07010113 19.81396155 19.20291593 21.31526194 20.3359375 22.81640625 C20.88991211 23.55391113 21.44388672 24.29141602 22.01464844 25.05126953 C24.34004133 28.13604633 26.70019464 31.19346241 29.0625 34.25 C32.61987652 38.86936657 36.14146643 43.51223126 39.625 48.1875 C40.00978516 47.06214844 40.00978516 47.06214844 40.40234375 45.9140625 C44.80745485 34.13743552 52.76027894 24.44043964 64.23046875 18.9375 C74.51460693 14.94042605 86.84848509 14.38069464 97.32421875 18.1484375 C108.22838984 23.07290186 115.43715773 30.17397378 122.375 39.75 C123.41791835 41.1650603 124.46221756 42.5791038 125.5078125 43.9921875 C126.02762695 44.69569336 126.54744141 45.39919922 127.08300781 46.12402344 C129.41891906 49.24991353 131.82807358 52.31554277 134.25 55.375 C139.015674 61.40375198 143.71608911 67.47938499 148.39111328 73.57861328 C150.46592587 76.28399812 152.54572853 78.98554166 154.625 81.6875 C155.45835693 82.77081518 156.29169027 83.85414851 157.125 84.9375 C157.5375 85.47375 157.95 86.01 158.375 86.5625 C162.125 91.4375 162.125 91.4375 163.37402344 93.0612793 C164.2105491 94.14873001 165.04713803 95.23613207 165.88378906 96.32348633 C167.91879288 98.96843787 169.95256533 101.61431112 171.984375 104.26171875 C176.77875095 110.50537502 181.59911088 116.72788067 186.4375 122.9375 C192.72194941 131.0050508 198.94145938 139.12067278 205.14501953 147.25048828 C208.95753539 152.24034325 212.7935218 157.21220368 216.625 162.1875 C217.45450659 163.26556383 218.28393273 164.34368956 219.11328125 165.421875 C219.73565674 166.23084229 219.73565674 166.23084229 220.37060547 167.05615234 C221.19956135 168.13421447 222.02802104 169.21265832 222.85595703 170.29150391 C225.0385822 173.13401259 227.23207269 175.96724794 229.44140625 178.7890625 C229.90095703 179.37880859 230.36050781 179.96855469 230.83398438 180.57617188 C231.71604407 181.707703 232.60131111 182.83674346 233.49023438 183.96289062 C235.36974639 186.38027924 236.64719453 188.25408358 237.625 191.1875 C238.285 191.1875 238.945 191.1875 239.625 191.1875 C239.75878052 189.28218506 239.75878052 189.28218506 239.89526367 187.33837891 C240.73148556 179.04370419 242.59585601 170.92355199 244.30078125 162.7734375 C244.67104657 160.99088249 245.04117667 159.2082994 245.41117859 157.4256897 C246.18498707 153.70487131 246.9631408 149.98499146 247.74389648 146.265625 C248.74016278 141.51594782 249.72131305 136.76328533 250.69871235 132.00969505 C251.4572265 128.33279892 252.22588071 124.65807594 252.99733543 120.98387527 C253.36331489 119.23286228 253.72570286 117.48109439 254.08431435 115.72855759 C254.58768237 113.27419937 255.10523113 110.8232282 255.6262207 108.37255859 C255.76923111 107.65962143 255.91224152 106.94668427 256.05958557 106.21214294 C257.8973151 97.74035577 261.25943746 91.00286777 268.625 86.1875 C277.69192462 81.37239975 287.1005388 82.88740979 296.67480469 85.5625 C314.36109642 91.23061553 327.07524394 102.92122682 335.625 119.1875 C344.57852479 140.7257013 340.50985696 165.45256395 338.76171875 188.09765625 C338.56669054 190.69214177 338.37210399 193.28666053 338.17793274 195.88121033 C337.77288176 201.26414543 337.36123698 206.64651693 336.94458008 212.02856445 C336.46466415 218.22982193 336.00059737 224.43212765 335.54397935 230.63514048 C335.10003367 236.65775185 334.6423897 242.67923566 334.17926979 248.70040703 C333.98532767 251.2425939 333.79517835 253.78507316 333.60895348 256.32783699 C333.3482967 259.86679415 333.07203959 263.40420156 332.79174805 266.94165039 C332.71837723 267.98216553 332.64500641 269.02268066 332.56941223 270.09472656 C332.1050094 275.72334866 331.33439923 280.19555371 328.625 285.1875 C325.43833914 286.78083043 322.09300147 286.57125426 318.625 286.1875 C316.6875 285.0625 316.6875 285.0625 315.625 283.1875 C314.1692162 277.42475734 314.84824396 271.85697738 315.33764648 266.00756836 C315.46910065 264.33047035 315.46910065 264.33047035 315.60321045 262.61949158 C315.79427729 260.19336341 315.98868159 257.76749628 316.18603325 255.34187126 C316.49960234 251.48417918 316.80387685 247.62585271 317.10572815 243.76722717 C317.85827719 234.17066345 318.62568251 224.57530146 319.39465332 214.9800415 C320.04284316 206.88853317 320.68402111 198.79652616 321.31642342 190.70376778 C321.61346819 186.93655349 321.92011894 183.17020412 322.22715759 179.40379333 C323.07669331 168.72705473 323.80381609 158.08760083 323.84790039 147.37329102 C323.85344909 146.5332273 323.85899778 145.69316359 323.86471462 144.82764339 C323.77909172 132.65146166 318.88517707 122.21836841 310.81640625 113.15625 C303.23982344 105.97346048 293.07311606 101.02409292 282.625 100.1875 C278.06413544 100.46857288 278.06413544 100.46857288 274.625 103.1875 C273.95620433 105.6509163 273.39233297 108.06924597 272.8828125 110.56640625 C272.71864334 111.34113785 272.55447418 112.11586945 272.3853302 112.91407776 C272.02495884 114.61985642 271.66807887 116.32637537 271.31417847 118.0335083 C270.74216565 120.78772201 270.15860731 123.53927884 269.57250977 126.29052734 C267.45329545 136.27464763 265.39995142 146.27051149 263.40679932 156.28056335 C262.39008026 161.37183145 261.35614436 166.45954215 260.32098389 171.54708862 C259.82011464 174.03359994 259.32763399 176.52181753 258.84405518 179.01174927 C254.05814727 203.63851714 247.9380107 218.13540826 228.1796875 234.08984375 C201.21668784 256.22918751 184.51313729 292.97058714 180.625 327.1875 C180.1779597 332.72265601 179.79092734 338.26319816 179.53442383 343.81054688 C179.47279053 344.83857422 179.41115723 345.86660156 179.34765625 346.92578125 C179.30390869 347.84399658 179.26016113 348.76221191 179.21508789 349.70825195 C178.45022964 352.92179582 177.20208223 354.16907988 174.625 356.1875 C171.125 356.6875 171.125 356.6875 167.625 356.1875 C164.71782927 353.96886971 163.78518357 352.66805071 162.625 349.1875 C160.47920355 303.60746613 179.58732712 261.3606748 209.625 228.1875 C214.75630432 222.6091855 220.34990063 217.85383864 226.3046875 213.16796875 C228.80004293 211.22041532 228.80004293 211.22041532 230.625 208.1875 C229.87476563 207.25550781 229.12453125 206.32351562 228.3515625 205.36328125 C222.09038076 197.57026155 215.9100977 189.72499699 209.84277344 181.78027344 C207.77655311 179.07778317 205.70020861 176.38309016 203.625 173.6875 C202.79161949 172.60420296 201.95828612 171.52086965 201.125 170.4375 C200.7125 169.90125 200.3 169.365 199.875 168.8125 C176.125 137.9375 176.125 137.9375 174.87597656 136.3137207 C174.0394509 135.22626999 173.20286197 134.13886793 172.36621094 133.05151367 C170.33120712 130.40656213 168.29743467 127.76068888 166.265625 125.11328125 C161.47124905 118.86962498 156.65088912 112.64711933 151.8125 106.4375 C145.52805059 98.3699492 139.30854062 90.25432722 133.10498047 82.12451172 C129.29246461 77.13465675 125.4564782 72.16279632 121.625 67.1875 C120.37668217 65.56513037 119.12860908 63.94257439 117.88110352 62.31958008 C117.04837276 61.23759658 116.21424015 60.15669045 115.37866211 59.0769043 C113.23671189 56.30533908 111.1247611 53.51715873 109.0546875 50.69140625 C100.46299471 39.04801966 100.46299471 39.04801966 87.625 33.1875 C79.15527446 32.28882273 72.64814863 33.19353099 65.625 38.1875 C58.68860658 44.08997818 56.31390217 50.77469723 55.1875 59.625 C56.56074524 70.80713982 62.20582376 78.05787415 69.18017578 86.43212891 C71.41878173 89.15189517 73.55268919 91.9485379 75.6875 94.75 C76.51145218 95.82442323 77.3356706 96.89864234 78.16015625 97.97265625 C78.76947998 98.76760498 78.76947998 98.76760498 79.39111328 99.57861328 C81.46592587 102.28399812 83.54572853 104.98554166 85.625 107.6875 C86.45835693 108.77081518 87.29169027 109.85414851 88.125 110.9375 C88.74375 111.741875 88.74375 111.741875 89.375 112.5625 C93.125 117.4375 93.125 117.4375 94.37402344 119.0612793 C95.2105491 120.14873001 96.04713803 121.23613207 96.88378906 122.32348633 C98.91879288 124.96843787 100.95256533 127.61431112 102.984375 130.26171875 C107.77875095 136.50537502 112.59911088 142.72788067 117.4375 148.9375 C123.72194941 157.0050508 129.94145938 165.12067278 136.14501953 173.25048828 C138.36118934 176.15103121 140.58592802 179.04493854 142.8125 181.9375 C143.60398437 182.96617187 144.39546875 183.99484375 145.2109375 185.0546875 C146.90173985 187.24890026 148.59435944 189.44161921 150.2890625 191.6328125 C152.00653009 193.85349716 153.715747 196.08011175 155.41796875 198.3125 C156.71074662 199.99654339 158.01905989 201.66922714 159.36328125 203.3125 C161.6758785 206.23093259 162.62019522 208.15600199 163.1875 211.875 C162.625 215.1875 162.625 215.1875 161.125 217.625 C158.32032764 219.37792022 156.08104501 220.07759481 152.75 219.86328125 C148.03084353 218.36252009 145.47998264 214.00239015 142.625 210.1875 C141.6968387 208.96467361 140.76843831 207.74202866 139.83984375 206.51953125 C137.78121117 203.79431627 135.74023802 201.05672307 133.70703125 198.3125 C130.86691988 194.49122684 127.95331007 190.73420309 125 187 C120.23462849 180.9710057 115.5339146 174.89561984 110.85888672 168.79638672 C108.78407413 166.09100188 106.70427147 163.38945834 104.625 160.6875 C103.79164307 159.60418482 102.95830973 158.52085149 102.125 157.4375 C101.50625 156.633125 101.50625 156.633125 100.875 155.8125 C97.125 150.9375 97.125 150.9375 95.87597656 149.3137207 C95.0394509 148.22626999 94.20286197 147.13886793 93.36621094 146.05151367 C91.33120712 143.40656213 89.29743467 140.76068888 87.265625 138.11328125 C82.47124905 131.86962498 77.65088912 125.64711933 72.8125 119.4375 C66.52805059 111.3699492 60.30854062 103.25432722 54.10498047 95.12451172 C50.29246461 90.13465675 46.4564782 85.16279632 42.625 80.1875 C40.95804708 78.02105349 39.29152587 75.85427503 37.625 73.6875 C36.79167453 72.60416062 35.9583412 71.52082728 35.125 70.4375 C30.125 63.9375 30.125 63.9375 28.87597656 62.3137207 C28.0394509 61.22626999 27.20286197 60.13886793 26.36621094 59.05151367 C24.33120712 56.40656213 22.29743467 53.76068888 20.265625 51.11328125 C18.20561364 48.43055403 16.1431978 45.7497424 14.07763672 43.07128906 C13.02922166 41.71169736 11.98144984 40.35160956 10.93408203 38.99121094 C9.10466784 36.61698067 7.27143569 34.24573888 5.4375 31.875 C4.86741211 31.13419189 4.29732422 30.39338379 3.70996094 29.63012695 C-6.29825959 16.02329024 -6.29825959 16.02329024 -21.40234375 9.78125 C-30.23551465 9.5139157 -37.19753261 11.27467531 -43.76953125 17.3203125 C-48.29674201 22.58553572 -51.25078776 29.23161449 -51.375 36.1875 C-50.33723704 48.92171637 -42.33053502 57.6930293 -34.58984375 67.19140625 C-31.39086729 71.13374547 -28.33895907 75.17444079 -25.3125 79.25 C-21.08311453 84.93615852 -16.77480294 90.54761027 -12.38085938 96.10742188 C-8.07284356 101.55926873 -3.83591186 107.0638629 0.39111328 112.57861328 C2.46592587 115.28399812 4.54572853 117.98554166 6.625 120.6875 C7.45835693 121.77081518 8.29169027 122.85414851 9.125 123.9375 C9.5375 124.47375 9.95 125.01 10.375 125.5625 C24.125 143.4375 24.125 143.4375 25.37402344 145.0612793 C26.2105491 146.14873001 27.04713803 147.23613207 27.88378906 148.32348633 C29.91879288 150.96843787 31.95256533 153.61431112 33.984375 156.26171875 C38.77875095 162.50537502 43.59911088 168.72788067 48.4375 174.9375 C54.72194941 183.0050508 60.94145938 191.12067278 67.14501953 199.25048828 C70.95753539 204.24034325 74.7935218 209.21220368 78.625 214.1875 C79.45450659 215.26556383 80.28393273 216.34368956 81.11328125 217.421875 C81.52763428 217.96054199 81.9419873 218.49920898 82.36889648 219.05419922 C83.20320139 220.13903884 84.03734972 221.22399889 84.87133789 222.30908203 C86.97492176 225.04543118 89.08186244 227.77907448 91.1953125 230.5078125 C93.68500009 233.72446803 96.15755495 236.95374275 98.625 240.1875 C99.40746094 241.20585937 100.18992188 242.22421875 100.99609375 243.2734375 C101.71925781 244.23507812 102.44242188 245.19671875 103.1875 246.1875 C104.14849609 247.4559375 104.14849609 247.4559375 105.12890625 248.75 C106.71308852 251.33101759 107.36071799 253.18066881 107.625 256.1875 C106.00344371 259.67384601 104.86046708 261.03052194 101.625 263.1875 C97.89699333 263.40679451 95.57689005 263.00949874 92.70703125 260.53125 C88.08721178 255.44114951 84.0401019 249.85886441 79.95703125 244.3359375 C73.72603616 235.92357227 67.2454152 227.69579347 60.8125 219.4375 C54.52816767 211.36985693 48.30854163 203.25432854 42.10498047 195.12451172 C38.29246461 190.13465675 34.4564782 185.16279632 30.625 180.1875 C28.95804708 178.02105349 27.29152587 175.85427503 25.625 173.6875 C24.79167453 172.60416062 23.9583412 171.52082728 23.125 170.4375 C18.125 163.9375 18.125 163.9375 16.87597656 162.3137207 C16.0394509 161.22626999 15.20286197 160.13886793 14.36621094 159.05151367 C12.33120712 156.40656213 10.29743467 153.76068888 8.265625 151.11328125 C3.47124905 144.86962498 -1.34911088 138.64711933 -6.1875 132.4375 C-10.86120553 126.43771316 -15.50759134 120.41821181 -20.125 114.375 C-20.66125 113.67632812 -21.1975 112.97765625 -21.75 112.2578125 C-24.24653149 109.00066699 -26.71814476 105.73139743 -29.12890625 102.41015625 C-34.35490629 95.27452423 -38.75260219 90.0616326 -47.375 87.1875 C-56.4255734 86.36365067 -63.88405867 86.71069759 -71.375 92.1875 C-76.69996193 96.94717935 -79.94501438 102.26985327 -80.7265625 109.390625 C-81.30176415 123.37710726 -75.07515897 130.92951944 -66.61328125 141.20703125 C-63.45614006 145.05276314 -60.46273043 149.00350577 -57.5 153 C-51.50454752 161.05955752 -45.34643793 168.98613789 -39.16162109 176.90087891 C-29.99373127 188.63447498 -20.88793161 200.41273313 -11.85498047 212.25048828 C-8.04246461 217.24034325 -4.2064782 222.21220368 -0.375 227.1875 C1.29195292 229.35394651 2.95847413 231.52072497 4.625 233.6875 C5.45832547 234.77083938 6.2916588 235.85417272 7.125 236.9375 C12.125 243.4375 12.125 243.4375 13.37402344 245.0612793 C14.2105491 246.14873001 15.04713803 247.23613207 15.88378906 248.32348633 C17.91879288 250.96843787 19.95256533 253.61431112 21.984375 256.26171875 C22.77328125 257.28910156 23.5621875 258.31648438 24.375 259.375 C24.7757373 259.89690918 25.17647461 260.41881836 25.58935547 260.95654297 C28.67713091 264.97124829 31.79117591 268.96496306 34.91064453 272.95507812 C37.29398705 276.00970453 39.66418789 279.0743922 42.03320312 282.14013672 C43.44049617 283.95019185 44.8651696 285.7444215 46.296875 287.53515625 C52.07957874 294.98910239 52.07957874 294.98910239 52.375 299.125 C51.46744441 302.83085198 50.87620777 304.15549515 47.625 306.1875 C44.17706753 306.93455203 42.84824622 307.20849143 39.625 306.1875 C36.37260521 303.67397197 34.08812232 300.45372439 31.625 297.1875 C30.6118969 295.87796165 29.59747882 294.56943998 28.58203125 293.26171875 C25.76453342 289.6156189 22.97939613 285.94597051 20.20166016 282.26953125 C17.96289833 279.31317311 15.70202108 276.3741454 13.4375 273.4375 C11.04904426 270.33595796 8.66087304 267.23423642 6.27734375 264.12890625 C1.4793524 257.87981508 -3.34510864 251.65225583 -8.1875 245.4375 C-14.47194941 237.3699492 -20.69145938 229.25432722 -26.89501953 221.12451172 C-29.90874496 217.18012083 -32.93790423 213.24764938 -35.96875 209.31640625 C-37.64162495 207.14112567 -39.30855611 204.96223325 -40.96875 202.77734375 C-43.41449017 199.56235297 -45.88709331 196.36999992 -48.375 193.1875 C-49.00277344 192.37796875 -49.63054687 191.5684375 -50.27734375 190.734375 C-54.85544916 185.12853164 -59.56980254 182.45589915 -66.375 180.1875 C-75.69121038 179.25587896 -81.90454162 181.26450798 -89.625 186.3125 C-96.33542258 193.32794179 -97.93023145 200.02084921 -97.94140625 209.59765625 C-96.59646489 218.12180184 -92.08878331 224.36791284 -86.75 230.9375 C-85.49320483 232.51800277 -84.23669604 234.09873332 -82.98046875 235.6796875 C-82.36606934 236.44635742 -81.75166992 237.21302734 -81.11865234 238.00292969 C-77.92163193 242.00838176 -74.81142861 246.07883257 -71.70703125 250.15625 C-70.08316798 252.26700024 -68.44306441 254.34303517 -66.76171875 256.40625 C-65.92445178 257.45831154 -65.08721121 258.51039409 -64.25 259.5625 C-63.13238281 260.93535156 -63.13238281 260.93535156 -61.9921875 262.3359375 C-59.9873143 265.87110038 -60.00008318 268.18205955 -60.375 272.1875 C-61.4375 274.5625 -61.4375 274.5625 -63.375 276.1875 C-66.70283149 277.03458438 -69.14842986 277.65358493 -72.41748047 276.41137695 C-74.57885553 275.0600458 -75.74129426 273.77099583 -77.2578125 271.73046875 C-77.77996338 271.03687256 -78.30211426 270.34327637 -78.84008789 269.62866211 C-79.38785889 268.88495361 -79.93562988 268.14124512 -80.5 267.375 C-81.66773333 265.81753179 -82.83570416 264.26024164 -84.00390625 262.703125 C-84.5777002 261.93291016 -85.15149414 261.16269531 -85.74267578 260.36914062 C-87.94247395 257.42905739 -90.18793383 254.52719557 -92.4375 251.625 C-93.62085938 250.07619141 -93.62085938 250.07619141 -94.828125 248.49609375 C-96.68491893 246.06883015 -98.57872548 243.67421564 -100.484375 241.28515625 C-111.47154373 227.35705362 -116.41797084 215.10341261 -114.375 197.1875 C-112.06044499 186.11901349 -105.51186894 176.73722684 -96.375 170.1875 C-88.91560127 165.40516771 -81.0199168 163.71966825 -72.375 162.1875 C-72.73215088 161.7248877 -73.08930176 161.26227539 -73.45727539 160.78564453 C-99.27221889 127.30565498 -99.27221889 127.30565498 -97.375 104.1875 C-94.76622974 91.54614467 -86.62904585 81.69019724 -76.06640625 74.6484375 C-69.21151005 70.79888988 -62.11844779 69.93506629 -54.375 69.1875 C-54.89449219 68.61644531 -55.41398437 68.04539062 -55.94921875 67.45703125 C-65.95696722 55.82140502 -68.74136139 44.34399014 -67.61865234 29.32421875 C-66.31481187 17.89013879 -59.47054874 8.26373929 -50.87890625 0.98046875 C-36.42353832 -9.37056694 -14.76259766 -10.56899986 0 0 Z " fill="#000000" transform="translate(114.375,16.8125)"/>
<path d="M0 0 C2.68064913 0.83409941 3.65526614 2.0218811 5.43310547 4.17797852 C6.03646729 4.9042041 6.6398291 5.63042969 7.26147461 6.37866211 C10.01223635 9.83023353 12.72183275 13.30568707 15.37841797 16.83032227 C16.51627395 18.32914535 17.65429639 19.82784207 18.79248047 21.32641602 C19.34709961 22.05844238 19.90171875 22.79046875 20.47314453 23.54467773 C22.71993082 26.50434686 24.98494861 29.44975905 27.25341797 32.39282227 C28.05134766 33.42922852 28.84927734 34.46563477 29.67138672 35.53344727 C30.46158203 36.55954102 31.25177734 37.58563477 32.06591797 38.64282227 C33.73287089 40.80926878 35.3993921 42.97604723 37.06591797 45.14282227 C37.89924344 46.22616165 38.73257677 47.30949499 39.56591797 48.39282227 C54.56591797 67.89282227 54.56591797 67.89282227 55.81494141 69.51660156 C56.65146707 70.60405228 57.488056 71.69145433 58.32470703 72.77880859 C60.35971085 75.42376014 62.3934833 78.06963338 64.42529297 80.71704102 C69.21966892 86.96069728 74.04002885 93.18320293 78.87841797 99.39282227 C83.55211327 105.39259597 88.19973444 111.41118468 92.81591797 117.45532227 C93.35289307 118.15761963 93.88986816 118.85991699 94.44311523 119.58349609 C96.89897813 122.79732741 99.34894458 126.0152603 101.78466797 129.24438477 C106.90809276 136.01392893 112.23510273 142.4690179 118.06591797 148.64282227 C118.81099609 149.45235352 119.55607422 150.26188477 120.32373047 151.09594727 C141.35345497 173.16674724 172.96577538 188.27489054 203.57250977 189.81982422 C245.92178744 190.52261223 281.25347079 180.32818625 312.84326172 150.90063477 C316.93500363 146.74417286 320.52778617 142.27334467 324.06591797 137.64282227 C324.86900391 136.62833008 325.67208984 135.61383789 326.49951172 134.56860352 C343.10377539 113.00158576 351.32069247 86.41532687 353.45944214 59.56503296 C353.63240554 57.40553626 353.81827721 55.24747883 354.00756836 53.08935547 C354.4662395 47.84143999 354.91193742 42.59266584 355.32666016 37.34106445 C355.53807661 34.6693671 355.76854343 32.00003591 356.00341797 29.33032227 C356.05377197 28.58564697 356.10412598 27.84097168 356.15600586 27.07373047 C356.45555019 23.80373738 356.90610736 21.85796515 358.88232422 19.19750977 C361.18917403 17.55506571 362.26977294 17.07486104 365.06591797 17.08032227 C365.72591797 17.0584082 366.38591797 17.03649414 367.06591797 17.01391602 C370.31985708 18.03712734 371.35280745 19.75314591 373.06591797 22.64282227 C373.28681583 25.39004497 373.26182144 27.62155131 373.00341797 30.33032227 C372.94250977 31.12849365 372.88160156 31.92666504 372.81884766 32.74902344 C372.6719497 34.61513993 372.51432153 36.48042867 372.34863281 38.3449707 C372.08535833 41.4160516 371.85852108 44.48824497 371.6421814 47.5629425 C368.78768411 87.75717031 359.1067676 123.68816545 332.06591797 154.64282227 C331.64052734 155.13524414 331.21513672 155.62766602 330.77685547 156.13500977 C324.44486856 163.42975492 317.81471499 169.82058055 310.06591797 175.64282227 C309.12748047 176.35825195 308.18904297 177.07368164 307.22216797 177.81079102 C273.73360894 202.19356917 232.19309002 211.43699446 191.27172852 205.87426758 C187.82566759 205.28395326 184.45130227 204.51218319 181.06591797 203.64282227 C180.30843262 203.46009766 179.55094727 203.27737305 178.77050781 203.08911133 C151.68965073 196.41073839 128.10520005 182.70788239 108.48388672 163.05688477 C107.10691298 161.68213554 105.71586412 160.32040425 104.28466797 159.00219727 C97.58067837 152.72482519 92.3274423 145.29367462 86.83203125 137.9777832 C83.88757207 134.08494278 80.8822221 130.23993602 77.87841797 126.39282227 C72.24510023 119.16486364 66.64522267 111.91254544 61.06591797 104.64282227 C59.39982543 102.47571379 57.73286598 100.30927274 56.06591797 98.14282227 C55.23256892 97.05950102 54.39923556 95.97616771 53.56591797 94.89282227 C53.15341797 94.35657227 52.74091797 93.82032227 52.31591797 93.26782227 C48.56591797 88.39282226 48.56591797 88.39282226 47.31689453 86.76904297 C46.48036887 85.68159225 45.64377994 84.5941902 44.80712891 83.50683594 C42.77212509 80.86188439 40.73835264 78.21601115 38.70654297 75.56860352 C33.91216701 69.32494725 29.09180709 63.1024416 24.25341797 56.89282227 C18.4988648 49.50551639 12.79480774 42.0811783 7.11669922 34.63500977 C5.14424629 32.04955613 3.16320035 29.47120179 1.17138672 26.90063477 C0.71924805 26.31644775 0.26710938 25.73226074 -0.19873047 25.13037109 C-1.40200542 23.57738587 -2.60740666 22.02604876 -3.81298828 20.47485352 C-9.82261632 12.45094868 -9.82261632 12.45094868 -10.43408203 8.01782227 C-9.93408203 4.64282227 -9.93408203 4.64282227 -8.43408203 2.20532227 C-5.61125536 0.4410556 -3.34453289 -0.16895857 0 0 Z " fill="#000000" transform="translate(69.93408203125,305.357177734375)"/>
<path d="M0 0 C28.54884911 0.04055234 54.73346041 16.12202153 74.75 35.19140625 C96.40051454 57.46050692 107.90427543 87.14788718 107.99023438 118.06445312 C108.00000776 120.19309602 108.03112762 122.32079878 108.0625 124.44921875 C108.06902554 125.81379642 108.07427777 127.1783809 108.078125 128.54296875 C108.0874707 129.77096191 108.09681641 130.99895508 108.10644531 132.26416016 C107.68881411 136.13325581 106.52070196 138.79570429 103.75 141.56640625 C96.52692591 142.1584615 96.52692591 142.1584615 93.64770508 139.96435547 C91.1179203 136.76770732 91.2661785 134.82040442 91.28125 130.7734375 C91.27008221 129.41511857 91.25868019 128.05680155 91.24707031 126.69848633 C91.24823853 125.99237213 91.24940674 125.28625793 91.25061035 124.55874634 C91.24712746 112.11977847 90.72468283 100.46368921 86.75 88.56640625 C86.37746094 87.43074219 86.00492187 86.29507813 85.62109375 85.125 C76.00952969 58.2570305 57.03286228 37.29369862 31.3125 25.09375 C21.3618667 20.82763419 11.45795871 18.06815099 0.796875 16.4375 C-2.25 15.56640625 -2.25 15.56640625 -4.1484375 13.6953125 C-5.79111353 10.5206372 -5.62649452 8.08035513 -5.25 4.56640625 C-3.76751595 1.89315275 -3.00686602 0.75693676 0 0 Z " fill="#000000" transform="translate(404.25,-0.56640625)"/>
<path d="M0 0 C3.09721477 0.62633842 4.15692688 1.96977523 6.10546875 4.42578125 C6.57202148 7.48413086 6.57202148 7.48413086 6.5390625 11.078125 C6.54422775 12.4151233 6.55011594 13.75211897 6.55664062 15.08911133 C6.5533374 15.78678619 6.55003418 16.48446106 6.54663086 17.20327759 C6.5028235 43.04195426 12.1123807 67.1912371 29.10546875 87.42578125 C29.82605469 88.28429687 30.54664063 89.1428125 31.2890625 90.02734375 C47.95177783 109.14470519 67.98584567 119.92536679 92.78173828 124.6027832 C93.68778809 124.78413818 94.59383789 124.96549316 95.52734375 125.15234375 C96.3378418 125.30268066 97.14833984 125.45301758 97.98339844 125.60791016 C100.73405057 126.66804415 101.63933737 127.89898283 103.10546875 130.42578125 C103.57779925 134.20442526 103.61008401 136.48863862 101.79296875 139.86328125 C94.79458444 143.93210934 86.31523049 141.24999025 78.91796875 139.36328125 C57.67925701 133.57204488 39.54047121 123.11509276 24.10546875 107.42578125 C23.21085937 106.52988281 22.31625 105.63398438 21.39453125 104.7109375 C0.7759908 83.10905128 -10.55785268 53.62349848 -10.28564453 23.89697266 C-10.26926872 21.76662834 -10.28575802 19.63810706 -10.3046875 17.5078125 C-10.30270928 16.13411045 -10.29887438 14.76040953 -10.29296875 13.38671875 C-10.28958496 12.16774902 -10.28620117 10.9487793 -10.28271484 9.69287109 C-9.41906904 2.42412379 -6.86430519 0.37348002 0 0 Z " fill="#000000" transform="translate(24.89453125,355.57421875)"/>
<path d="M0 0 C22.24231766 4.25298473 42.15273055 16.38859406 55.15234375 35.09765625 C64.95534701 50.41370789 70.173294 66.44131599 70.1875 84.625 C70.19974609 85.45773438 70.21199219 86.29046875 70.22460938 87.1484375 C70.23728343 92.45464017 70.12282691 96.80135785 66.25 100.8125 C63.23756441 102.40239656 61.36220317 102.4903213 58 102 C55.45998536 100.14647581 54.25179879 98.87970211 53.3828125 95.84375 C52.99553256 92.96681328 53.01118272 90.22607027 53.11694336 87.3293457 C53.73282213 68.63348252 47.7522234 51.68079353 35.3671875 37.4609375 C24.93917529 26.61993471 12.53264074 20.02888983 -2.22680664 17.50488281 C-7.25220573 16.55833629 -9.82029422 15.00047113 -13 11 C-13.625 8 -13.625 8 -13 5 C-9.38494895 -0.19663589 -5.97000023 -0.96438465 0 0 Z " fill="#000000" transform="translate(407,35)"/>
<path d="M0 0 C3.14406204 2.37929019 4.2878121 4.19278989 5 8 C4.97740952 9.97974708 4.95042238 11.95974699 4.88305664 13.93847656 C4.30162375 32.98694231 9.96206673 49.99116921 22.6328125 64.5390625 C33.13232129 75.45439342 45.55797962 81.83439702 60.31469727 84.67089844 C64.21667318 85.43922518 67.17106277 86.10757042 70 89 C71.10373378 92.97344161 71.41543583 95.08999772 69.6875 98.875 C68 101 68 101 66 102 C49.15613446 103.65135937 31.27568238 94.00805993 18.45410156 83.85083008 C1.50653386 69.8229582 -9.32417179 49.80113878 -12 28 C-13.3629084 9.31452584 -13.3629084 9.31452584 -10 3 C-6.90380952 -0.20676871 -4.37120798 -0.63746783 0 0 Z " fill="#000000" transform="translate(62,360)"/>
</svg>
